# xmcd CD database file
#
# Track frame offsets:
#	150
#	66740
#	88158
#	157906
#	175222
#
# Disc length: 2537 seconds
#
# Revision: 0
# Processed by: cddbd v1.5.2PL0 Copyright (c) Steve Scherf et al.
# Submitted via: CDex 1.51
#
DISCID=3f09e705
DTITLE=Enrico Rava - Quartet 1978
DYEAR=1978
DGENRE=Jazz
TTITLE0=Lavori Casalinghi
TTITLE1=The Fearless Five
TTITLE2=Tramps
TTITLE3=Round About Midnight
TTITLE4=Blackmail
EXTD=YEAR: 1978
EXTT0=
EXTT1=
EXTT2=
EXTT3=
EXTT4=
PLAYORDER=
